<?xml version="1.0" encoding="UTF-8"?>
<svg id="Capa_1" xmlns="http://www.w3.org/2000/svg" version="1.1" viewBox="0 0 371.23 410.24">
  <!-- Generator: Adobe Illustrator 29.7.1, SVG Export Plug-In . SVG Version: 2.1.1 Build 8)  -->
  <defs>
    <style>
      .st0 {
        fill: #9a8574;
      }
    </style>
  </defs>
  <path class="st0" d="M247.93,125.71c31.39,29.41,37.04,78.38,12.82,114.09-9.63,14.19-40.6,41.7-40.61,58.25,0,12.44,1.78,25.82.55,38.28-.69,6.96-5.7,11.99-12.68,12.67-10.04.99-30.75.9-40.89.02-5.56-.48-11.56-4.44-12.53-10.23-2.68-16,3.8-35.76-3.14-51.18-12.18-27.06-39.35-39.21-48.86-72.2-25.02-86.77,80.07-150.83,145.32-89.7h.02ZM212.42,299.85c3.79-31.2,35.25-47.69,48.04-74.31,22.26-46.32-4.33-102.76-54.34-114.17-64.94-14.82-119.66,49.81-93.13,111.23,7.43,17.19,20.75,28.22,32.15,42.35,8.16,10.1,16.16,21.5,17.09,34.91h8.8v-67.51l-28.88-40.96c-4.49-7.88,7.11-5.48,10.73-9.27-3.42-6.28-4.94-12.78-3.97-19.99.9-6.68,6.4-13.49,13.67-10.32,9.81,4.28,7.42,23.8.69,30.36,5.09,4.2,12.77,3.4,18.61,1.29-1.04-3.45-3.15-6.07-3.98-9.72-1.3-5.67-1.33-13.36,2-18.38,4.57-6.9,12.83-5.26,16.05,1.88,3.88,8.62,1.12,18.37-3.2,26.22,6.09,2.39,12.68,2.24,18.62-.52-1.13-2.65-3.01-4.87-4.02-7.61-2.55-6.9-3.2-20.45,5.06-23.67,7.19-2.81,11.84,3.13,13.21,9.54,1.63,7.57-.39,14.53-3.91,21.23,3.4,2.5,13.02,1.66,11.81,7.39l-29.92,42.54v67.51h8.8l.02-.02ZM158.1,176.72c4.26-1.9,5.98-18.67.76-18.65-5.26,4.31-3.19,13.14-.76,18.65ZM187.08,177.76c3.73-3.29,5.07-15.55,1.57-18.9-3.32-3.17-4.72,5.7-4.72,7.78,0,3.71,1.76,7.76,3.16,11.12h-.01ZM215.37,158.16c-4.75,1.22-2.53,15.82.93,18.55,2.05-2.86,2.99-7.65,2.87-11.12-.06-1.77-1.21-8.09-3.8-7.43h0ZM178.28,230.27v69.58h18.11v-68.55c0-.35.78-2.09,1.03-2.59l26.36-37.28c.23-1.1-.22-.58-.7-.79-2.17-.94-4.23-1.83-6.26-3.06-8.75,6.08-20.46,6.41-29.41.6-8.82,5.81-20.49,5.47-29.14-.5l-7.42,3,27.42,39.57v.02Z"/>
  <path class="st0" d="M145.02,76.47c1.95-.44,3.74-.12,5.04,1.46,1.21,1.47,4.69,11.71,5.46,14.2.91,2.9,2.9,6.12.28,8.57-2.27,2.13-5.3,1.82-6.94-.88-1.43-2.36-5.69-14.35-6.45-17.35-.59-2.32.02-5.42,2.61-6Z"/>
  <path class="st0" d="M99.51,235.28c4.24.37,6.3,4.21,3.5,7.67l-17.33,10.09c-4.03,1.32-6.74-2.3-5.6-6.12.63-2.1,16.45-10.25,19.42-11.65h.01Z"/>
  <path class="st0" d="M86.07,203.26c2.51-.23,4.61-.66,6.01,1.96,1.14,2.13.54,4.94-1.61,6.06-4.46,2.33-14.9,1.96-20.06,3.76-4.45-.2-6.11-6.55-2.21-8.44,2.02-.98,14.99-3.07,17.87-3.34Z"/>
  <path class="st0" d="M223.66,101.04c-3.11,2.66-8.1.13-7.52-4.11l7.13-19.15c3.64-3.14,8.3-1.17,7.74,3.96-.27,2.43-4.9,14.44-6.17,17.14-.28.59-.76,1.8-1.19,2.17h0Z"/>
  <path class="st0" d="M82.93,127.68c1.21-.36,3.05-.22,4.26.18,1.21.4,14.91,8.37,16.05,9.3,3.58,2.95,1.26,9.22-4.13,7.76-1.68-.46-15.36-8.32-16.81-9.58-2.45-2.14-2.45-6.75.63-7.66Z"/>
  <path class="st0" d="M260.38,96.64c2.97-.89,6.38,1.16,6.31,4.3s-11.42,14.15-13.62,17.35c-4.03,1.9-8.47-1.04-6.62-5.59.58-1.41,9.1-11.37,10.72-13.07.67-.7,2.5-2.77,3.22-2.99h-.01Z"/>
  <path class="st0" d="M286.77,127.69c5.39-1.24,7.75,3.26,4.77,7.36l-17.02,9.88c-5,1.38-8.43-4-4.17-7.79,1.01-.9,15.47-9.23,16.42-9.44h0Z"/>
  <path class="st0" d="M250.04,262.19c1.89-.43,3.02-.13,4.54.93,1.26.87,11.2,12.62,12.16,14.23,2.74,4.62-1.2,8.6-5.98,6.49l-13.48-16.56c-.57-1.89.78-4.64,2.76-5.09h0Z"/>
  <path class="st0" d="M70.02,165.43l20.08,3.5c4.88,2.88,3.45,8.54-2.63,8.35-2.46-.08-16.58-2.45-18.48-3.27-4.09-1.78-3.33-7.67,1.03-8.57h0Z"/>
  <path class="st0" d="M305.9,172.94c-.75.8-2.37,1.21-3.44,1.48-3.11.77-17.01,3.39-19.32,2.71-3.49-1.02-3.84-6.95.24-8.34,2.14-.73,17.29-3.5,19.28-3.41,3.8.17,5.89,4.71,3.24,7.56h0Z"/>
  <path class="st0" d="M281.9,210.72c-2.95-2.95-.94-7.65,3.74-7.66,2.31,0,16.93,2.58,18.88,3.41,4.26,1.81,3.4,8.47-1.8,8.54-3.19.04-15.04-2.3-18.49-3.25-.61-.17-1.92-.64-2.32-1.04h-.01Z"/>
  <path class="st0" d="M292.45,245.69c2.89,3.16,0,8.32-4.11,7.5-1.43-.28-15.68-8.48-17.2-9.74-3.92-3.24-1.65-8.68,3.36-8.06l17.95,10.29h0Z"/>
  <path class="st0" d="M120.18,262.19c4.15-.94,6.86,2.05,5.55,6.08l-12.38,15.03c-4.17,2.87-8.99,0-7.23-5.16l12.13-14.77c.51-.58,1.17-1.01,1.92-1.18h.01Z"/>
  <path class="st0" d="M109.84,96.64c1.65-.37,3.26-.19,4.55.92,4,3.42,8.1,10.89,12.19,14.71,2.16,4.99-2.26,8.27-6.76,5.72-3.36-4.64-8.07-8.88-11.3-13.53-1.87-2.69-2.8-6.9,1.32-7.82Z"/>
  <path class="st0" d="M184.85,69.74c3.49-1.04,5.96.79,6.37,4.28.42,3.48.47,14.72-.05,18.09-.85,5.57-8.17,5.23-8.79.58-.4-3.01-.48-17.46.04-20.19.17-.89,1.57-2.5,2.42-2.75h.01Z"/>
</svg>