<?xml version="1.0" encoding="UTF-8"?>
<svg id="Capa_1" xmlns="http://www.w3.org/2000/svg" version="1.1" viewBox="0 0 371.23 410.24">
  <!-- Generator: Adobe Illustrator 29.7.1, SVG Export Plug-In . SVG Version: 2.1.1 Build 8)  -->
  <defs>
    <style>
      .st0 {
        fill: #9a8573;
      }
    </style>
  </defs>
  <g>
    <polygon class="st0" points="155.81 357.47 151.07 357.39 150.14 356.05 150.42 318.96 178.18 346.7 177.89 319.52 183.55 319.53 183.55 358.6 155.81 331.42 155.81 357.47"/>
    <path class="st0" d="M194.31,319.53h13.31c16.9,0,24.36,26.37,8.59,35.2-1.24.7-5.79,2.74-6.89,2.74h-14.72l-.73-.85c-.02-.23.44-.43.44-.57v-36.52ZM199.41,352.37h9.34c.24,0,3.91-1.49,4.44-1.79,8.59-4.73,8.58-18.28.56-23.6-.62-.41-4.65-2.36-5-2.36h-9.34v27.75Z"/>
    <polygon class="st0" points="141.08 319.53 141.08 324.62 121.83 324.62 121.83 335.95 138.82 335.95 138.82 341.04 121.83 341.04 121.83 352.37 141.65 352.37 141.65 357.47 116.17 357.47 116.17 319.53 141.08 319.53"/>
    <path class="st0" d="M94.37,319.53c12.11,1.43,15.43,15.89,5.45,22.16l-.1.75,9.08,15.03-6.12-.11-8.6-13.76-6.8-.27v14.16h-5.1v-37.94c3.87.33,8.39-.45,12.17,0ZM87.29,338.78c6.32,1.02,15.2-1.43,12.65-9.54-.39-1.22-3.38-4.62-4.44-4.62h-8.21v14.16Z"/>
    <polygon class="st0" points="72.57 319.53 72.57 324.62 53.31 324.62 53.31 335.95 70.87 335.95 70.87 341.04 53.31 341.04 53.31 352.37 73.7 352.37 73.7 357.47 48.22 357.47 48.22 319.53 72.57 319.53"/>
    <path class="st0" d="M254.34,343.31v14.16h-5.1v-37.94h12.74c.21,0,3.05.82,3.53,1.01,8.41,3.24,9.43,15.69,2.39,20.76-.45.32-3.44,2.02-3.65,2.02h-9.91ZM254.34,338.78c6.63.82,14.87-1.09,12.63-9.52-.42-1.58-3.01-4.64-4.42-4.64h-8.21v14.16Z"/>
    <path class="st0" d="M25.42,319.66c4.41-.7,10.2.1,13.69,3.03l-1.99,3.58c-4.42-2.64-15.95-4.26-14.94,3.67.65,5.08,13.13,6,16.32,11.46,4.73,8.11-2.23,16.54-10.99,16.64-3.67.04-16.84-2.85-10.09-7.86,4.34,2.88,15.45,5.5,16.98-1.76s-8.98-8.22-12.99-10.88c-7.88-5.22-5.1-16.44,4.01-17.89Z"/>
    <polygon class="st0" points="336.45 344.72 322.29 319.53 328.99 319.62 338.72 338.78 349.73 319.48 355.69 319.81 341.54 344.72 341.54 357.47 336.45 357.47 336.45 344.72"/>
    <polygon class="st0" points="318.33 319.53 318.33 324.62 308.13 324.62 308.13 357.47 303.04 357.47 303.04 324.62 293.41 324.62 293.41 319.53 318.33 319.53"/>
    <rect class="st0" x="233.39" y="319.53" width="5.1" height="37.94"/>
    <rect class="st0" x="280.39" y="319.53" width="5.1" height="37.94"/>
  </g>
  <g>
    <path class="st0" d="M177.77,51.85c91.45-5.32,154.26,92.86,109.5,173.49-42.15,75.94-149.75,81.39-199.09,9.76-51.64-74.98-.79-178,89.58-183.25ZM263.2,90.39c-62.04-62.03-169.17-30.2-186.97,55.28-17.71,85.08,64.55,157.03,146.54,127.29,75.63-27.43,97.64-125.37,40.43-182.56Z"/>
    <path class="st0" d="M138.85,224.34l8.77-15.84c4.46,2.04,8.39,4.94,12.9,6.92,10.51,4.62,22.36,7.07,33.53,3.32,8.25-2.77,14.94-9.48,14.43-18.7,1.34,1.78,2.64,4.22,3.69,6.22s6.41,12.01,6.48,13.35c.05.88-.52,1.77-.5,2.74.02,1.25.9,2.25.41,3.9-.64,2.17-10.14,7.44-12.53,8.44-21.72,9.08-48.06,1.48-67.17-10.34Z"/>
    <path class="st0" d="M224.81,218.66l-3.91-1.46-25.45-51.12c4.06,2.3,11.64-1.58,14.54-.72,1.83.54,7.39,4.88,8.97,6.37,12.5,11.72,13.73,32.31,5.85,46.94Z"/>
    <path class="st0" d="M182.42,117.93c-3.68.2-6.74,2.28-9.87,3.96-.73-.17-2.72-5.05-3.72-3.95-.51,1.64,2.18,4.39,2.1,5.38-.02.3-2.67,3.49-3.26,5.06-.98,2.63-1.28,5.44-1.11,8.24-2.88-1.7-6-10.86-7.9-12.19-.63-.44-2.07-.67-1.71.57.98,3.32,9.85,15.47,12.46,18.69,4.85,5.98,10.93,11.32,16.41,16.71-11.53-5.33-22.5-13.66-31.72-22.36-1.73-1.63-5.05-6.23-6.5-7.13-1.16-.72-1.81,1.25-1.27-2.35,1.72-11.58,11.77-21.68,22.35-25.78,1.54-.6,6.02-2.57,7.24-1.28l6.5,16.44Z"/>
    <path class="st0" d="M221.45,125.82l-5.1-2.02c-.38-1.81,3.24-9.45,3.65-12.21.12-.81.65-1.65-.5-2.14-1.02-.43-1.19,1.32-1.41,1.96-1.31,3.8-2.05,7.84-3.4,11.62l-12.76-4.51-.78-15.06-1.47-1.38c-1.17-.35,1.09,15.29.28,16.42-4.99-1.67-10.3-1.04-15.48-1.11l-7.17-16.72c.18-.92,5.81-1.38,7.05-1.46,15.55-.92,31.41,3.35,44.43,11.63l-7.35,14.98Z"/>
    <path class="st0" d="M145.61,132.09c1.1-.26,1.09.4,1.59.95,10.85,11.89,24.05,21.9,38.62,28.78-.04,1.08-16.1-3.69-17.43-4.1-6.64-2.03-13.17-4.44-19.62-7-.95-.71-3.17-8.09-3.17-9.29v-9.34Z"/>
    <path class="st0" d="M186.95,164.36c-6.87.47-16.68,2.95-23.37,1.58-4.57-.94-11.62-8.92-14-12.89l37.37,11.31Z"/>
    <path class="st0" d="M200.54,184.19c-4.6-3.64-10.06-5.67-15.28-8.22,2.38-3.02,4.69-5.91,6.51-9.32l8.77,17.54Z"/>
    <path class="st0" d="M186.38,166.07l-6.23,3.1c-5.5,2.85-8.38,1.71-13.58-.85l19.81-2.25Z"/>
    <path class="st0" d="M190.35,161.53c-.4.39-5.59-3.68-6.24-4.23-2.02-1.74-3.92-3.93-5.66-5.95l9.03,4.27,2.86,5.91Z"/>
    <path class="st0" d="M190.35,166.64c-2.51,3.93-5.28,10.83-10.76,7.35l10.76-7.35Z"/>
    <path class="st0" d="M207.34,164.36c-4.53.7-8.43,1.58-13.02.57l9.4-2.22c1.21.1,3.12.34,3.62,1.65Z"/>
  </g>
</svg>