<?xml version="1.0" encoding="utf-8"?>
<svg id="Capa_1" xmlns="http://www.w3.org/2000/svg" version="1.1" viewBox="0 0 886.11 230.78">
  <defs>
    <style>
      .st0 {
        font-family: MyriadPro-Regular, 'Myriad Pro';
        font-size: 12px;
      }

      .st1 {
        fill: #9a8573;
      }
    </style>
  </defs>
  <g>
    <g transform="matrix(1, 0, 0, 1.19278, 33.833566, -35.304777)" style="">
      <path class="st1" d="M519.39,64.72h4.71v73.52l-55.61-61.27v59.38h-5.66V63.78l54.18,60.35c.74,1.57,2.37-.03,2.37-.49v-58.91Z"/>
      <path class="st1" d="M546.72,136.36v-71.64h25.92c1.47,0,10.56,3.55,12.42,4.54,18.67,9.96,23.69,37.15,11.06,53.82-3.53,4.65-14.84,13.28-20.66,13.28h-28.75ZM551.44,131.65h21.21c6.21,0,16.59-7.8,20.11-12.88,12.77-18.44.11-49.33-22.94-49.33h-18.38v62.21Z"/>
      <path class="st1" d="M355.85,64.72c20.8,2.95,23.93,31.96,5.19,40.05l18.85,31.11-6.13-.47-17.44-29.22h-16.97v30.16h-4.71v-71.64c6.61.67,14.82-.91,21.21,0ZM339.35,101.48h16.5c1.65,0,7.47-3.78,8.81-5.33,5.99-6.93,4.48-18.69-3.3-23.74-.83-.54-6.03-2.98-6.45-2.98h-15.55v32.05Z"/>
      <polygon class="st1" points="313.9 64.72 313.9 69.43 274.31 69.43 274.31 97.71 308.71 97.71 310.13 102.43 275.72 102.43 274.31 103.84 274.31 131.65 314.84 131.65 314.84 136.36 269.6 136.36 269.6 64.72 313.9 64.72"/>
      <polygon class="st1" points="443.04 64.72 443.04 69.43 403.45 69.43 403.45 97.71 437.85 97.71 439.27 102.43 404.86 102.43 403.45 103.84 403.45 131.65 443.98 131.65 443.98 136.36 398.73 136.36 398.73 64.72 443.04 64.72"/>
      <path class="st1" d="M654.18,106.2v30.16h-4.71v-71.64h22.15c.5,0,4.54,1.6,5.53,2.01,14.36,5.94,14.59,27.75,2.42,36.11-.98.67-6.38,3.36-7.01,3.36h-18.38ZM654.18,101.48h16.5c.39,0,4.4-1.92,5.14-2.4,9.17-5.97,10.37-20.97.71-27.02-.72-.45-5.53-2.63-5.85-2.63h-16.5v32.05Z"/>
      <path class="st1" d="M205.5,130.69l2.34-4.68c9.67,6.06,19.08,10.01,30.06,4.58,4.9-2.43,8.17-8.09,8.14-13.56-.15-20.88-39.94-13.04-36.79-38.66,1.12-9.05,11.24-13.98,19.5-14.23,3.25-.1,15.87,2.03,18.21,3.89,1.62,1.29,1.2,3.69-.58,4.16-1.29.34-11.51-3.49-14.98-3.7-7.98-.46-17.48,3.7-17.5,12.72-.04,12.73,25.04,14.69,32.55,23.16,10.3,11.61,2.11,31.2-13.13,32.94-10.72,1.22-18.63-1.76-27.81-6.62Z"/>
      <path class="st1" d="M811.6,111.38l-26.37-45.28c-.73-2.53,5.23-1.55,6.11-.45l22.61,39.61,22.61-39.61,6.13-.93-26.39,46.65v24.98h-4.71v-24.98Z"/>
      <polygon class="st1" points="774.84 64.72 774.84 69.43 754.57 69.43 753.16 70.85 753.16 136.36 748.44 136.36 748.44 69.43 727.71 69.43 727.71 64.72 774.84 64.72"/>
      <rect class="st1" x="621.19" y="64.72" width="5.66" height="71.64"/>
      <rect class="st1" x="705.08" y="64.72" width="5.66" height="71.64"/>
    </g>
    <g transform="matrix(1.31984, 0, 0, 1.359697, -33.26441, -52.65816)" style="">
      <path class="st1" d="M106.05,51.29c55.81-3.25,94.14,56.67,66.83,105.88-25.72,46.35-91.39,49.67-121.5,5.96-31.52-45.76-.48-108.63,54.67-111.83ZM158.18,74.81c-37.86-37.86-103.24-18.43-114.11,33.73-10.81,51.92,39.39,95.83,89.43,77.68,46.15-16.74,59.59-76.51,24.68-111.41Z"/>
      <path class="st1" d="M82.29,156.56l5.35-9.66c2.72,1.25,5.12,3.02,7.87,4.23,6.41,2.82,13.65,4.32,20.46,2.02,5.03-1.69,9.12-5.79,8.81-11.41.82,1.09,1.61,2.58,2.25,3.79s3.91,7.33,3.96,8.15c.03.54-.31,1.08-.3,1.67.01.76.55,1.37.25,2.38-.39,1.32-6.19,4.54-7.65,5.15-13.26,5.54-29.33.9-40.99-6.31Z"/>
      <path class="st1" d="M134.75,153.09l-2.39-.89-15.53-31.2c2.48,1.4,7.1-.97,8.88-.44,1.12.33,4.51,2.98,5.47,3.89,7.63,7.15,8.38,19.72,3.57,28.65Z"/>
      <path class="st1" d="M108.89,91.62c-2.25.12-4.11,1.39-6.02,2.41-.44-.1-1.66-3.08-2.27-2.41-.31,1,1.33,2.68,1.28,3.29-.01.18-1.63,2.13-1.99,3.09-.6,1.61-.78,3.32-.68,5.03-1.75-1.04-3.66-6.63-4.82-7.44-.38-.27-1.27-.41-1.04.35.6,2.03,6.01,9.44,7.6,11.41,2.96,3.65,6.67,6.91,10.01,10.2-7.03-3.26-13.73-8.34-19.36-13.64-1.05-.99-3.08-3.8-3.97-4.35-.71-.44-1.1.77-.77-1.44,1.05-7.07,7.18-13.23,13.64-15.73.94-.36,3.68-1.57,4.42-.78l3.97,10.03Z"/>
      <path class="st1" d="M132.7,96.44l-3.11-1.23c-.23-1.1,1.98-5.76,2.23-7.45.07-.49.39-1.01-.31-1.31-.62-.26-.73.81-.86,1.2-.8,2.32-1.25,4.78-2.08,7.09l-7.79-2.75-.48-9.19-.89-.84c-.72-.21.67,9.33.17,10.02-3.04-1.02-6.29-.63-9.45-.68l-4.38-10.2c.11-.56,3.55-.84,4.3-.89,9.49-.56,19.17,2.05,27.11,7.09l-4.49,9.14Z"/>
      <path class="st1" d="M86.42,100.26c.67-.16.67.24.97.58,6.62,7.26,14.68,13.36,23.57,17.56-.03.66-9.83-2.25-10.64-2.5-4.05-1.24-8.04-2.71-11.97-4.27-.58-.44-1.93-4.94-1.93-5.67v-5.7Z"/>
      <path class="st1" d="M111.65,119.95c-4.19.29-10.18,1.8-14.26.96-2.79-.57-7.09-5.44-8.55-7.87l22.81,6.9Z"/>
      <path class="st1" d="M119.94,132.05c-2.81-2.22-6.14-3.46-9.33-5.02,1.46-1.84,2.86-3.61,3.97-5.69l5.35,10.71Z"/>
      <path class="st1" d="M111.3,121l-3.8,1.89c-3.36,1.74-5.12,1.05-8.29-.52l12.09-1.37Z"/>
      <path class="st1" d="M113.72,118.23c-.24.24-3.41-2.24-3.81-2.58-1.23-1.06-2.39-2.4-3.45-3.63l5.51,2.61,1.75,3.61Z"/>
      <path class="st1" d="M113.72,121.34c-1.53,2.4-3.22,6.61-6.57,4.48l6.57-4.48Z"/>
      <path class="st1" d="M124.09,119.95c-2.76.43-5.15.97-7.95.35l5.74-1.35c.74.06,1.9.21,2.21,1.01Z"/>
    </g>
    <text style="fill: rgb(152, 127, 127); font-family: Bahnschrift; font-size: 28px; font-weight: 600; white-space: pre;" transform="matrix(1.975737, 0, 0, 1.597484, -208.227503, -64.179187)" x="227.016" y="158.662">Interior Design</text>
  </g>
  <text class="st0" transform="translate(3306.41 525)" style="white-space: pre;"><tspan x="0" y="0">Lor</tspan><tspan x="0" y="14.4">em </tspan></text>
</svg>