<?xml version="1.0" encoding="UTF-8"?>
<svg id="Capa_1" xmlns="http://www.w3.org/2000/svg" version="1.1" viewBox="0 0 371.23 410.24">
  <!-- Generator: Adobe Illustrator 29.7.1, SVG Export Plug-In . SVG Version: 2.1.1 Build 8)  -->
  <defs>
    <style>
      .st0 {
        fill: #9a8574;
      }
    </style>
  </defs>
  <path class="st0" d="M211.31,129.66c.54.12,3.13,2.26,3.31,2.75,1.57,4.22-8.72,5.18-11.08,5.55-39.38,1.65-80.51-2.16-119.69-.02-1.59.09-3.08.46-4.65.61l.11,177.44c1.7,6.88,6.86,6.85,12.91,6.53,20.61-1.09,45.5-5.22,66.39-7.85,23.72-2.98,47.14-5.63,70.28-11.72,10.35-2.73,20.42-6.51,30.91-8.71l-13.29-71.21c.45-4.02-2.15-17.32.56-19.93,4.68-4.51,6.96,5.14,7.57,7.92,5.07,23.03,4.2,44.93,13.05,67.86,1.53,3.97,5.12,8.51,4.04,12.61-2.05,7.81-11.96,7.02-15.36,15.66-2.94,7.48,3.04,19.64-5.43,23.39-6.12,2.71-33.44,1.46-41.86,1.4-24.67-.17-49.48-.73-74.24-.6-16.22.08-33.05,1.66-49.31.61-8.28-.54-13.33-2.24-14.12-11.37-1.53-17.79.51-39.04.6-57.07.27-55.59-.24-111.23-.05-166.84l.64-4.07c5.07-.46,14.4-.03,17.35-5.09,1.33-2.28,2.35-7.96,6.18-8.29,3.57-.31,7.4,8.92,9.36,10.57,5.58,4.69,8.68-9.05,10.98-10.94,6.37-5.25,7.76,14.11,14.38,12.48,5.05-1.24,5.51-13.27,10.12-13.25s6.04,13.25,11.98,12.53,5.96-14.98,12.1-12.19c2.79,1.27,5.05,12.5,9.8,12.9,3.8.32,5.62-12.66,12.21-10.55,5.48,1.76,5.38,6.32,8.17,9.04,4,3.9,5.52-2.96,7.05-5.2,3.63-5.35,8.26-6.62,11.9-.45,1.22,2.06,2.22,7.37,3.23,8.4,3.29,3.36,5.39-4.4,6.5-6.27,6.78-11.4,17.58-7.43,24.8,1.01,7.67,8.97,10.19,19.63,8.33,31.29,5.4-3.66,10.58-7.7,15.77-11.65,6.4-4.87,11.63-11.68,20.62-6.19,12.53,7.65,5.43,18.69.06,27.98-30.81,53.33-76.05,106.14-130.27,136.24-7.14,3.96-35.17,18.96-41.63,18.77-6.4-.19-3.87-7.63-3-11.86,6.36-30.83,23.64-46.15,44.54-66.82,25.26-24.98,49.92-50.57,75.6-75.13,8.2-9.23,8.81-21.85,4.17-32.94-.81.04-8.15,11.63-9.68,13.02-4.72,4.28-6.92-5.34-9.14-8.06-7.98-9.73-11.29,9.45-15.53,9.45-3.2,0-5.64-10.11-9.67-11.41-7.52-2.42-8.28,11.52-13.06,11.38-3.75-.11-4.91-12.29-11.57-11.63-4.94.49-7.04,11.88-11.04,11.52-3.21-.29-5.31-10.57-9.2-11.83-7.37-2.37-8.04,11.89-13.05,11.9-4.24,0-4.98-12.22-10.53-12.18-5.96.04-7.82,12.49-12.1,12.11-4.79-.42-4.67-12.13-10.07-12.01-4.61.1-5.92,9.83-10.25,11.85-4.65,2.16-7.51-7.78-10.23-9.7-2.04-1.45-5.28-1-7.49-2.2v30.48h131.03ZM264.14,134.02c.39-.68-.07-1.33-.45-1.9-.31-.47-4.96-5.62-5.29-5.84-.66-.43-.47-.4-1.2-.09-2.24.94-7.61,4.82-9.62,6.51-18.41,15.48-34.92,37.17-52.61,53.77-21.86,24.94-52.93,44.56-65.87,75.98-2.95,7.17-2.09,12.47,6.94,9.16,9.09-3.33,24.43-13.61,32.82-19.26,38.09-25.69,62.78-55.35,90.92-90.82,5.35-6.74,11.96-12.25,14.44-20.99l-6.42-4.69c-8.42,8.16-15.67,18.15-24.64,25.68-2.39,2.01-7.71,7.06-10.49,4.36-1.47-5.01,18.37-21.74,22.41-25.13,1.35-1.13,8.77-6.25,9.05-6.74ZM244.83,308.64l-61.49,14.4c17.32-.56,34.89-.03,52.22-1.24,8.17-1.54,9.09-5.37,9.28-13.16Z"/>
</svg>