<?xml version="1.0" encoding="UTF-8"?>
<svg id="Capa_1" xmlns="http://www.w3.org/2000/svg" version="1.1" viewBox="0 0 371.23 410.24">
  <!-- Generator: Adobe Illustrator 29.7.1, SVG Export Plug-In . SVG Version: 2.1.1 Build 8)  -->
  <defs>
    <style>
      .st0 {
        fill: #9a8573;
      }
    </style>
  </defs>
  <path class="st0" d="M162.81,69.65c38.29-2.35,82.06,16.25,101.66,50.11,12.4,21.44,13.17,50.3-3.22,69.97-11.34,13.61-34.92,11.74-37.08,33.42-2.6,26.1,15.24,38.41,4.34,69.27-21.09,59.68-92.09,60.93-133.92,21.34C13.11,236.65,38.98,77.23,162.81,69.65ZM159.72,78.31c-67.67,5.15-109.64,69.77-103.77,134.31,5.49,60.28,57.71,140.69,127.71,115.35,25.59-9.26,44.8-39.71,39.09-66.94-3.41-16.26-11.51-29.05-5.07-46.85,7.46-20.62,27.39-17.71,38.01-31.25,14.18-18.09,11.34-43.99-.72-62.33-19.93-30.29-59.84-44.99-95.25-42.29Z"/>
  <path class="st0" d="M322.92,179.73c1.96,2.69-1.14,10.68-2.26,13.74-8.82,24.03-29.31,57.05-45.46,76.98-1.23,1.52-3.73,3.15-4.59,4.74s-.53,6.14-.95,8.27c-2.31,11.79-12.11,18.6-22.6,22.84-.43-.46,1.38-4.51,1.74-5.36.98-2.29,3.05-4.89,3.81-6.7.12-.28.16-1.01-.3-.91l-5.26,3.08c.98-7.85,2.43-14.27,8.02-20.11,1.56-1.63,7.3-5.24,7.73-5.88.67-1,.97-4.29,1.55-5.88,7.74-21.14,32.24-66.33,47.94-81.93,2.35-2.34,7.78-6.81,10.64-2.89ZM280.44,243.84l4.65,2.36c12.2-18.3,23.53-37.87,31.22-58.63-14.48,16.8-25.8,36.53-35.86,56.26ZM281.65,250.68l-4.3-1.88-7.43,17.93c2.94-2.21,5.19-5.47,7.3-8.46.87-1.23,5.01-6.73,4.42-7.59Z"/>
  <path class="st0" d="M157.24,241.57c28.93-1.94,48.87,28.93,35.61,54.77-12.07,23.52-45.2,26.98-62.06,6.55-19.39-23.5-3.73-59.3,26.45-61.32Z"/>
  <path class="st0" d="M215.96,119.7c32.93-5.1,33,43.39,2.33,40.66-23.54-2.1-23.71-37.35-2.33-40.66Z"/>
  <path class="st0" d="M155.99,99.93c30.54-4.46,32.28,40.84,4.1,41.2-25.23.32-27.96-37.71-4.1-41.2Z"/>
  <path class="st0" d="M100.32,132.08c31.93-4.35,32.17,45.27-.62,40.49-21.55-3.14-21.71-37.45.62-40.49Z"/>
  <path class="st0" d="M90.43,196.4c31.72-4.33,32.38,44.51-.09,40.59-21.61-2.61-22.42-37.51.09-40.59Z"/>
</svg>